 <svg  version="1.0" xmlns="http://www.w3.org/2000/svg"  width="300.000000pt" height="424.000000pt" viewBox="0 0 300.000000 424.000000"  preserveAspectRatio="xMidYMid meet">  <g transform="translate(0.000000,424.000000) scale(0.100000,-0.100000)" fill="#ffffff" stroke="none"> <path d="M355 2160 c-2 -8 -15 -62 -29 -120 -13 -58 -28 -113 -31 -122 -6 -16 -1 -18 39 -18 42 0 46 2 46 25 0 22 4 25 34 25 28 0 35 -4 38 -22 2 -19 10 -24 46 -26 42 -3 43 -2 36 20 -4 13 -19 74 -33 137 l-26 113 -58 2 c-43 1 -58 -3 -62 -14z m89 -46 c11 -28 7 -35 -13 -24 -14 7 -22 7 -26 0 -12 -19 -25 0 -15 21 13 23 45 25 54 3z m-15 -86 c1 -10 -6 -18 -15 -18 -12 0 -15 6 -10 23 3 12 6 29 7 37 1 20 17 -18 18 -42z"/> <path d="M676 2157 c-37 -37 -36 -98 0 -132 15 -14 31 -25 35 -25 12 0 11 -27 0 -35 -6 -3 -19 4 -30 17 -25 26 -26 24 -34 -25 -5 -34 -3 -39 19 -47 78 -30 144 6 144 79 0 35 -5 44 -40 72 -41 33 -52 59 -26 59 8 0 22 -10 30 -21 14 -21 15 -20 25 17 13 47 6 55 -52 61 -39 5 -49 2 -71 -20z"/> <path d="M985 2165 c-2 -5 -15 -59 -30 -120 -14 -60 -28 -118 -31 -128 -5 -16 0 -18 38 -15 36 2 44 7 46 26 3 18 10 22 38 22 30 0 34 -3 34 -25 0 -23 4 -25 43 -25 l43 0 -31 136 -32 136 -58 2 c-31 0 -59 -3 -60 -9z m86 -56 c10 -19 9 -21 -8 -17 -11 3 -28 1 -37 -4 -17 -10 -20 -1 -10 26 9 23 41 20 55 -5z m-12 -86 c1 -7 -6 -13 -14 -13 -16 0 -18 12 -8 50 l7 25 7 -25 c4 -14 7 -31 8 -37z"/> <path d="M1348 2160 c-37 -29 -51 -71 -46 -140 3 -49 9 -65 33 -90 37 -39 77 -40 111 -3 31 34 37 59 32 133 -3 49 -10 66 -33 90 -33 35 -62 38 -97 10z m69 -45 c2 -5 -10 -10 -27 -10 -30 0 -36 5 -23 19 10 10 46 3 50 -9z m-9 -68 c2 -19 -1 -27 -13 -27 -19 0 -30 24 -21 46 9 23 31 11 34 -19z m18 -72 c-19 -29 -52 -31 -70 -3 -13 22 -3 32 21 20 13 -7 24 -6 37 4 27 19 32 10 12 -21z"/> <path d="M1519 2175 c0 0 -1 -62 -2 -138 l-2 -137 44 0 44 0 -6 45 c-7 45 -6 45 23 45 28 0 30 3 30 35 0 32 -2 35 -30 35 -25 0 -30 4 -30 25 0 23 4 25 41 25 39 0 40 1 37 31 l-3 31 -73 2 c-39 0 -72 1 -73 1z"/> <path d="M1690 2038 l0 -138 40 0 40 0 0 45 c0 43 1 45 30 45 28 0 30 3 30 35 0 32 -2 35 -30 35 -25 0 -30 4 -30 25 0 22 4 25 38 25 35 0 37 2 36 31 l-1 30 -76 2 -77 2 0 -137z m66 -24 c-5 -13 -10 -14 -18 -6 -6 6 -8 18 -4 28 5 13 10 14 18 6 6 -6 8 -18 4 -28z"/> <path d="M1870 2038 l0 -138 40 0 40 0 0 138 0 137 -40 0 -40 0 0 -137z"/> <path d="M2027 2149 c-41 -41 -54 -97 -37 -159 15 -54 50 -90 89 -90 39 0 83 20 77 36 -2 6 -10 30 -17 52 -10 36 -15 40 -43 38 -43 -2 -43 28 1 32 27 3 33 9 46 47 18 51 11 62 -47 72 -31 5 -40 1 -69 -28z m73 -27 c0 -12 -60 -55 -67 -48 -11 10 28 56 47 56 11 0 20 -4 20 -8z m0 -163 c0 -18 -19 -18 -44 2 -14 11 -26 29 -26 40 0 19 2 18 35 -7 19 -14 35 -30 35 -35z"/> <path d="M2180 2038 l0 -138 40 0 40 0 0 138 0 137 -40 0 -40 0 0 -137z"/> <path d="M2345 2165 c-2 -5 -15 -59 -30 -120 -14 -60 -28 -118 -31 -128 -5 -16 0 -18 38 -15 36 2 44 7 46 26 3 18 10 22 38 22 30 0 34 -3 34 -25 0 -22 4 -25 40 -25 48 0 48 -5 11 154 l-27 118 -58 2 c-32 0 -60 -3 -61 -9z m86 -56 c10 -19 9 -21 -8 -17 -11 3 -28 1 -37 -4 -17 -10 -20 -1 -10 26 9 23 41 20 55 -5z m-12 -86 c1 -7 -6 -13 -14 -13 -16 0 -18 12 -8 50 l7 25 7 -25 c4 -14 7 -31 8 -37z"/> <path d="M2540 2038 l0 -138 80 0 80 0 0 35 c0 34 -1 35 -41 35 l-40 0 2 102 2 102 -42 1 -41 1 0 -138z"/> <path d="M566 2004 c-34 -34 -7 -121 31 -98 32 20 26 114 -8 114 -4 0 -15 -7 -23 -16z"/> <path d="M846 1998 c-19 -27 -20 -58 -3 -82 34 -46 86 20 57 71 -20 35 -35 38 -54 11z"/> </g> </svg> 